<svg width="37" height="40" viewBox="0 0 37 40" fill="none" xmlns="http://www.w3.org/2000/svg">
<path d="M2.04615 40H0.446154V36H2.04615C3.64615 36 5.17115 35.825 6.62115 35.475C8.07115 35.125 9.69615 34.5667 11.4962 33.8C12.7628 34.4333 13.8712 34.9583 14.8212 35.375C15.7712 35.7917 16.9795 36 18.4462 36C19.9128 36 21.1212 35.7917 22.0712 35.375C23.0212 34.9583 24.1295 34.4333 25.3962 33.8C27.1628 34.5667 28.7878 35.125 30.2712 35.475C31.7545 35.825 33.2962 36 34.8962 36H36.4462V40H34.8962C33.2628 40 31.6712 39.85 30.1212 39.55C28.5712 39.25 27.0462 38.8 25.5462 38.2C24.2128 38.8333 22.9962 39.2833 21.8962 39.55C20.7962 39.8167 19.6462 39.95 18.4462 39.95C17.2462 39.95 16.1045 39.8167 15.0212 39.55C13.9378 39.2833 12.7295 38.8333 11.3962 38.2C9.89615 38.8 8.37115 39.25 6.82115 39.55C5.27115 39.85 3.67949 40 2.04615 40ZM18.4462 32C16.4462 32 14.6962 31.3333 13.1962 30C11.6962 28.6667 10.9462 28 10.9462 28C10.0462 28.9 9.03782 29.6667 7.92115 30.3C6.80449 30.9333 5.61282 31.3833 4.34615 31.65L0.0961538 18C-0.0705128 17.4333 -0.0205128 16.9167 0.246154 16.45C0.512821 15.9833 0.929487 15.6667 1.49615 15.5L4.44615 14.7V8C4.44615 6.9 4.83782 5.95833 5.62115 5.175C6.40449 4.39167 7.34615 4 8.44615 4H13.4462V0H23.4462V4H28.4462C29.5462 4 30.4878 4.39167 31.2712 5.175C32.0545 5.95833 32.4462 6.9 32.4462 8V14.7L35.3962 15.5C35.9628 15.6667 36.3795 15.9833 36.6462 16.45C36.9128 16.9167 36.9628 17.4333 36.7962 18L32.5462 31.65C31.2795 31.3833 30.0878 30.9333 28.9712 30.3C27.8545 29.6667 26.8462 28.9 25.9462 28C25.9462 28 25.1962 28.6667 23.6962 30C22.1962 31.3333 20.4462 32 18.4462 32ZM18.5462 28C19.5795 28 20.4962 27.6583 21.2962 26.975C22.0962 26.2917 22.8295 25.5667 23.4962 24.8L25.7962 22.15L27.8462 24.25C28.2128 24.6167 28.5878 24.9583 28.9712 25.275C29.3545 25.5917 29.7295 25.9167 30.0962 26.25L32.3962 18.8L18.4462 15.15L4.54615 18.8L6.84615 26.25C7.21282 25.9167 7.58782 25.5917 7.97115 25.275C8.35449 24.9583 8.72949 24.6167 9.09615 24.25L11.1462 22.15L13.4462 24.8C14.1128 25.6 14.8628 26.3333 15.6962 27C16.5295 27.6667 17.4795 28 18.5462 28ZM8.44615 13.65L18.4462 11L28.4462 13.65V8H8.44615V13.65Z" fill="#0058BE"/>
</svg>
